<svg xmlns="http://www.w3.org/2000/svg" width="256" height="256" viewBox="0 0 256 256">
    <rect x="0" y="0" width="256" height="256" rx="58" fill="#131715"/>
    <g transform="scale(2.56)"><defs><linearGradient id="gg" x1="0" y1="0" x2="0" y2="1">
  <stop offset="0" stop-color="#7EFFB2"/><stop offset="1" stop-color="#2FD576"/></linearGradient></defs>
    <path d="M50,9 L83,19 L83,47 C83,68 68,85 50,91 C32,85 17,68 17,47 L17,19 Z" fill="none" stroke="url(#gg)" stroke-width="5.2" stroke-linejoin="round"/>
    <path d="M39,33 C39,29 43,27 47,27 L53,27 C57,27 61,29 61,33 L56,59 C55,67 52,73 50,73 C48,73 45,67 44,59 Z" fill="url(#gg)"/>
    <g stroke="#131715" stroke-width="2.5" stroke-linecap="round" fill="none">
  <path d="M43,35 C47,39 53,39 57,35"/>
  <path d="M50,37 L50,67"/>
  <path d="M44,45 H56"/><path d="M45,53 H55"/><path d="M46,61 H54"/></g></g></svg>